<svg width="20" height="20" viewBox="0 0 20 20" fill="none" xmlns="http://www.w3.org/2000/svg">
<path fill-rule="evenodd" clip-rule="evenodd" d="M5.86965 0.122727C4.24177 0.196177 2.8308 0.5942 1.69149 1.72871C0.548187 2.86918 0.155147 4.28558 0.0815141 5.89653C0.0357424 6.90201 -0.231923 14.4982 0.544207 16.4903C1.0676 17.8342 2.09846 18.8675 3.45469 19.3926C4.08754 19.6387 4.80994 19.8055 5.86965 19.8541C14.7305 20.2551 18.0151 20.0367 19.4002 16.4903C19.646 15.859 19.8151 15.1374 19.8619 14.0803C20.2669 5.19677 19.7962 3.27117 18.2519 1.72871C17.027 0.506853 15.5862 -0.324924 5.86965 0.122727ZM5.95108 18.0675C4.98091 18.0238 4.45454 17.862 4.10329 17.726C3.2197 17.3826 2.55601 16.7215 2.21471 15.8431C1.62365 14.3294 1.81968 7.14021 1.87241 5.97691C1.92416 4.83743 2.155 3.79622 2.959 2.99224C3.95403 1.99966 5.23962 1.5133 13.993 1.90835C15.1353 1.95996 16.1791 2.19024 16.9851 2.99224C17.9801 3.98481 18.4736 5.28012 18.0716 13.9999C18.0279 14.9676 17.8657 15.4927 17.7293 15.8431C16.8288 18.1508 14.7572 18.4714 5.95108 18.0675ZM14.0898 4.68962C14.0898 5.34671 14.6242 5.88071 15.2839 5.88071C15.9436 5.88071 16.4789 5.34671 16.4789 4.68962C16.4789 4.03254 15.9436 3.49854 15.2839 3.49854C14.6242 3.49854 14.0898 4.03254 14.0898 4.68962ZM4.86267 9.98797C4.86267 12.8029 7.15026 15.0848 9.97219 15.0848C12.7941 15.0848 15.0817 12.8029 15.0817 9.98797C15.0817 7.17303 12.7941 4.89209 9.97219 4.89209C7.15026 4.89209 4.86267 7.17303 4.86267 9.98797ZM6.65564 9.98794C6.65564 8.1616 8.14024 6.67969 9.9721 6.67969C11.804 6.67969 13.2886 8.1616 13.2886 9.98794C13.2886 11.8153 11.804 13.2972 9.9721 13.2972C8.14024 13.2972 6.65564 11.8153 6.65564 9.98794Z" fill="#F7F7F7"/>
</svg>
